# xmcd
#
# Track frame offsets:
#	183
#	14920
#	32640
#	47255
#	64118
#	77405
#	89460
#	103993
#	118698
#	134215
#	147890
#	163038
#	176240
#	192910
#
# Disc length: 2779
#
# Revision: 2
# Processed by: cddbd v1.5.2PL0 Copyright (c) Steve Scherf et al.
# Submitted via: Broken Cross Disk Manager 3.94.2201
#
DISCID=c90ad90e
DTITLE=Truck Stop - Lousiana Ladies
DYEAR=1986
DGENRE=
TTITLE0=Lousiana Ladies
TTITLE1=Träume von den Cowboys
TTITLE2=Sie will den Himmel auf Erden
TTITLE3=Es ist nicht wahr
TTITLE4=Trucker, Cowboy, Mann
TTITLE5=Schöne Grüße
TTITLE6=Highways
TTITLE7=Der Traum vom großen Abenteuer
TTITLE8=Nastarowje
TTITLE9=Oh, Mann du weißt doch...
TTITLE10=Trucker bleibt Trucker
TTITLE11=Ich würd so gern mal wieder sündigen
TTITLE12=Silverado
TTITLE13=Wenn ein Stern vom Himmel fällt
EXTD=
EXTT0=
EXTT1=
EXTT2=
EXTT3=
EXTT4=
EXTT5=
EXTT6=
EXTT7=
EXTT8=
EXTT9=
EXTT10=
EXTT11=
EXTT12=
EXTT13=
PLAYORDER=
